<svg width="166" height="267" viewBox="0 0 166 267" fill="none" xmlns="http://www.w3.org/2000/svg">
<path d="M47.3208 108.071C50.3236 111.744 53.7374 115.062 57.4956 117.958C53.4851 105.799 59.8019 81.7185 59.8188 85.3559C59.8952 102.738 66.3222 123.181 70.0869 124.944C70.0869 124.944 70.0869 124.944 70.1547 124.944C80.4906 128.675 90.784 127.929 99.8311 125.199C99.8311 125.199 99.8311 125.199 99.8311 125.139C94.2943 111.166 100.068 86.543 100.289 88.1709C102.773 105.604 113.168 117.763 115.331 118.212C125.014 112.319 130.932 105.621 129.957 104.595C122.902 97.1332 119.036 81.0401 116.051 64.2687C113.084 47.7347 113.075 32.6252 107.199 17.1511C101.807 2.99124 86.1291 -2.9186 75.5728 1.38872C47.8381 12.7166 43.0729 102.924 47.3208 108.071Z" fill="#263238"/>
<path d="M77.427 0.767578C75.123 1.36895 72.9766 2.46238 71.1356 3.97263C69.2614 5.43984 67.5245 7.07453 65.9465 8.85651C62.8794 12.4914 60.2077 16.4422 57.9763 20.6423C53.3722 28.9771 50.3452 38.092 48.1322 47.3001C46.0574 56.5548 44.7753 65.9694 44.2997 75.4418C44.1471 77.8075 44.1301 80.1731 44.0453 82.5387L44.0029 89.6356L44.2403 96.7156L44.6812 103.787V96.7071L44.8084 89.6356L45.0713 82.5726C45.2324 80.224 45.3172 77.8668 45.5376 75.5266C46.2022 66.1433 47.5913 56.8254 49.6923 47.6563C51.6893 38.4792 54.8224 29.5869 59.0192 21.1849C61.1116 16.984 63.6259 13.0067 66.5231 9.31438C67.9901 7.47382 69.622 5.77096 71.3985 4.227C72.2973 3.47514 73.2495 2.78936 74.2474 2.17508C75.2314 1.5505 76.3031 1.07613 77.427 0.767578Z" fill="#263238"/>
<path d="M131.486 102.335C129.653 98.6819 128.006 94.9379 126.552 91.1178C125.042 87.3192 123.677 83.4867 122.499 79.5694C121.32 75.6521 120.26 71.7348 119.446 67.7582C118.632 63.7816 117.954 59.7201 117.208 55.7011C115.622 47.6631 114.045 39.5911 111.993 31.6632C110.942 27.6951 109.823 23.7439 108.441 19.869C107.744 17.9323 106.94 16.0357 106.033 14.1881C105.199 12.3003 103.984 10.6057 102.463 9.21094C103.845 10.7101 104.927 12.46 105.651 14.3662C106.44 16.2444 107.127 18.1633 107.711 20.1149C108.932 24.0067 109.916 27.9749 110.815 31.9854C112.612 39.9557 114.206 47.9768 115.656 56.0233C116.453 60.0423 117.174 64.0529 118.047 68.0889C118.916 72.1062 120.018 76.0697 121.346 79.9594C123.935 87.7517 127.334 95.2512 131.486 102.335Z" fill="#263238"/>
<path d="M150.156 266.301H83.8165C83.2512 264.09 82.686 261.875 82.1207 259.653C81.7533 258.195 81.383 256.739 81.01 255.286C81.01 255.193 80.9676 255.108 80.9421 255.015L79.4922 249.317C79.4414 249.131 79.3905 248.944 79.3481 248.758C78.9835 247.308 78.6104 245.858 78.2543 244.425C77.3273 240.824 76.4172 237.26 75.5241 233.733C75.1849 232.393 74.8458 231.045 74.4981 229.722C74.489 229.659 74.4748 229.597 74.4557 229.536C74.2437 228.688 74.0233 227.84 73.8113 226.992C72.4292 221.582 71.098 216.334 69.8262 211.314C69.6736 210.721 69.521 210.153 69.3683 209.576C68.2491 205.159 67.1808 200.953 66.1718 197.002L65.7478 195.306C65.5019 194.331 65.2645 193.381 65.0186 192.449C64.7982 191.601 64.5862 190.77 64.3827 189.956C63.7722 187.556 63.1872 185.301 62.6869 183.173C62.6021 182.825 62.5089 182.494 62.4325 182.164C61.6694 179.205 60.9996 176.551 60.4146 174.261C60.3043 173.854 60.2111 173.464 60.1093 173.083C59.8973 172.235 59.6938 171.455 59.5158 170.734C59.4225 170.37 59.3377 170.022 59.2444 169.691L57.998 164.799H121.2C121.2 164.799 136.284 216.792 150.156 266.301Z" fill="#37474F"/>
<path d="M94.3169 266.292H92.4515C91.321 261.844 90.2131 257.395 89.1278 252.946L87.8559 247.859C86.9063 244.021 85.951 240.172 84.99 236.311C84.99 236.141 84.9137 235.963 84.8713 235.794C80.3266 217.386 75.8667 198.935 71.8307 180.409C71.7798 180.188 71.7289 179.968 71.6865 179.748C71.6865 179.723 71.6964 179.699 71.7138 179.682C71.7313 179.664 71.7551 179.654 71.7798 179.654C71.8045 179.654 71.8283 179.664 71.8457 179.682C71.8632 179.699 71.8731 179.723 71.8731 179.748L71.9324 179.968C77.0198 198.121 81.7765 216.428 86.3467 234.725C86.4399 235.039 86.5162 235.361 86.5925 235.675C86.9741 237.184 87.3472 238.676 87.7287 240.177C88.2544 242.305 88.7971 244.417 89.3313 246.562C91.0157 253.125 92.6776 259.701 94.3169 266.292Z" fill="#263238"/>
<path d="M119.148 164.836L110.169 209.774L109.762 211.784L109.126 214.98L108.109 220.068L107.168 224.807V225.019L106.99 225.867L98.943 266.193H83.8165C83.2512 263.983 82.686 261.767 82.1207 259.546C81.7533 258.087 81.383 256.632 81.01 255.179C81.01 255.086 80.9676 255.001 80.9421 254.908C80.4503 253.008 79.9755 251.109 79.4922 249.21C79.4414 249.023 79.3905 248.837 79.3481 248.65C78.9835 247.2 78.6104 245.75 78.2543 244.317C77.3273 240.717 76.4172 237.153 75.5241 233.625C75.1849 232.286 74.8458 230.938 74.4981 229.615C74.489 229.552 74.4748 229.489 74.4557 229.428C74.2437 228.58 74.0233 227.733 73.8113 226.885C72.4292 221.475 71.098 216.227 69.8262 211.207L69.3683 209.469C68.2491 205.051 67.1808 200.846 66.1718 196.895C66.0276 196.326 65.892 195.767 65.7478 195.199C65.5019 194.224 65.2645 193.274 65.0186 192.341C64.7982 191.493 64.5862 190.662 64.3827 189.848C63.7722 187.449 63.1872 185.194 62.6869 183.065C62.6021 182.718 62.5089 182.387 62.4325 182.056C61.6694 179.097 60.9996 176.443 60.4146 174.154C60.3043 173.747 60.2111 173.357 60.1093 172.975C59.8973 172.127 59.6938 171.347 59.5158 170.627C59.4225 170.262 59.3377 169.914 59.2444 169.584L57.998 164.691L119.148 164.836Z" fill="#263238"/>
<path d="M119.171 164.809C119.171 165.165 118.908 168.912 118.323 174.636C117.116 186.675 115.133 198.624 112.388 210.408C111.692 213.283 110.929 216.123 110.098 218.887C109.539 220.804 108.928 222.703 108.275 224.501L108.224 224.662L107.122 225.077C101.161 227.538 95.3978 230.455 89.8845 233.802C89.8845 233.802 89.8845 233.929 89.8845 234.158C89.8421 235.413 89.664 239.915 89.4096 246.512C89.3248 248.479 89.2485 250.633 89.1553 252.939C89.0026 256.966 88.8246 261.477 88.6465 266.285H25.1221C25.97 255.61 26.767 244.774 27.581 234.268C27.581 234.268 21.6457 217.641 22.2901 209.238C23.8927 188.889 33.016 164.817 33.016 164.817L119.171 164.809Z" fill="#37474F"/>
<path d="M97.4866 209.477L97.563 204.39C97.6138 201.286 97.8258 198.183 97.9445 195.063C98.2158 188.034 98.5296 180.979 99.1231 173.967C99.1231 173.797 99.4199 173.797 99.4283 173.967C99.5301 176.757 99.5894 179.538 99.581 182.327C99.5725 185.117 99.6657 187.906 99.6573 190.688C99.6573 196.216 99.6573 201.71 99.4283 207.272C99.352 209.401 98.5804 213.309 101.65 213.547C104.092 213.733 105.508 211.164 105.94 209.121C106.34 206.571 106.533 203.994 106.517 201.413C106.624 198.587 106.684 195.781 106.695 192.994C106.695 186.88 106.839 180.784 107 174.679C107 174.501 107.28 174.518 107.305 174.679C108.007 180.837 108.401 187.026 108.484 193.223C108.484 196.19 108.484 199.158 108.357 202.134C108.263 204.907 108.314 207.866 107.458 210.537C106.788 212.631 105.27 214.641 103.049 215.192C103.004 215.188 102.958 215.188 102.913 215.192C102.943 215.208 102.969 215.231 102.988 215.259C103.007 215.287 103.019 215.319 103.023 215.353C103.117 216.328 103.278 217.303 103.303 218.287C103.329 219.27 103.303 220.245 103.218 221.212C103.176 222.206 103.057 223.195 102.862 224.171C102.776 224.639 102.66 225.1 102.515 225.553C102.362 226.028 102.108 226.401 101.913 226.867C101.896 226.903 101.868 226.932 101.834 226.951C101.799 226.969 101.759 226.975 101.72 226.968C101.682 226.961 101.646 226.942 101.62 226.913C101.593 226.884 101.577 226.847 101.574 226.808C101.574 226.647 101.574 226.486 101.523 226.333C101.527 226.305 101.527 226.276 101.523 226.248C101.486 225.967 101.467 225.684 101.463 225.4C101.463 224.926 101.514 224.451 101.548 223.976C101.624 223.026 101.752 222.068 101.879 221.127C102.006 220.186 102.074 219.228 102.184 218.278C102.294 217.328 102.481 216.336 102.566 215.353C102.575 215.316 102.596 215.284 102.625 215.26C101.75 215.423 100.845 215.314 100.034 214.947C99.223 214.58 98.5439 213.973 98.0887 213.208C97.573 212.036 97.3658 210.751 97.4866 209.477Z" fill="#263238"/>
<path d="M84.4747 236.107C86.4687 234.581 88.5683 233.199 90.7576 231.969C93.0613 230.575 95.4547 229.334 97.9223 228.256C102.755 226.161 107.741 224.728 112.727 223.075C112.871 223.024 112.973 223.279 112.828 223.329C107.995 225.254 103.366 227.806 98.7024 230.113C96.4046 231.24 94.0814 232.309 91.7412 233.343C89.401 234.378 87.0608 235.582 84.6612 236.463C84.4747 236.506 84.3306 236.226 84.4747 236.107Z" fill="#263238"/>
<path d="M46.7651 194.007C50.1567 194.007 60.2042 194.134 65.4188 189.25C67.6233 187.181 68.8104 184.163 69.7685 181.407C70.8614 178.296 71.7452 175.115 72.4139 171.885C72.4139 171.724 72.6768 171.784 72.6853 171.928C72.7613 175.589 72.2897 179.242 71.2862 182.764C70.4383 185.74 69.3615 189.072 66.9535 191.167C64.5455 193.261 60.9673 194.143 57.7199 194.558C54.0743 194.982 50.389 194.931 46.7566 194.406C46.7037 194.404 46.6535 194.382 46.6169 194.344C46.5804 194.306 46.5604 194.255 46.5616 194.202C46.5627 194.149 46.5848 194.099 46.6229 194.062C46.6611 194.026 46.7122 194.006 46.7651 194.007Z" fill="#263238"/>
<path d="M128.17 193.529C126.644 193.63 122.125 194.105 119.42 189.425C118.276 187.432 117.521 184.465 116.876 181.751C116.139 178.682 115.528 175.545 114.969 172.34C114.969 172.187 114.842 172.246 114.85 172.39C115.087 175.999 115.566 179.588 116.283 183.133C116.876 186.076 117.631 189.357 118.869 191.366C119.332 192.171 119.969 192.861 120.734 193.388C121.498 193.915 122.37 194.264 123.287 194.41C124.944 194.715 126.655 194.535 128.213 193.893C128.306 193.851 128.281 193.52 128.17 193.529Z" fill="#263238"/>
<path d="M42.1886 170.177C42.1038 170.49 33.8369 201.651 34.2184 209.18C34.6 216.709 39.0175 231.946 39.0345 232.073C39.0514 232.2 38.2459 245.546 37.0504 266.277H35.4394L37.415 232.26C37.2284 231.132 32.972 216.658 32.5989 209.282C32.1919 201.464 40.23 171.025 40.6116 169.736C40.7056 169.577 40.8487 169.454 41.0193 169.384C41.1899 169.314 41.3786 169.301 41.5569 169.348C41.7352 169.395 41.8933 169.499 42.0073 169.644C42.1213 169.789 42.185 169.967 42.1886 170.151V170.177Z" fill="#263238"/>
<path d="M98.4964 74.5492C131.081 103.267 161.351 134.75 163.869 151.004C167.363 173.473 153.593 179.875 147.395 180.002C130.504 180.358 99.0645 112.264 88.0927 86.2502C77.4516 60.9998 91.3401 68.2832 98.4964 74.5492Z" fill="#009247"/>
<path d="M120.817 164.813L116.272 136.256C116.272 136.256 127.583 124.555 121.732 112.294C118.782 106.079 98.695 75.8347 87.9691 68.2036C77.9046 61.0643 65.9747 66.9911 61.5063 74.7154C50.2293 94.2086 39.5203 116.627 33 164.838L120.817 164.813Z" fill="#009247"/>
<path d="M102.887 132.552C98.309 133.047 93.7743 133.883 89.3207 135.053C87.1161 135.664 84.9625 136.376 82.8088 137.131C81.7405 137.504 80.6551 137.843 79.5698 138.182C78.4446 138.564 77.2774 138.809 76.0935 138.911C76.0765 138.917 76.0617 138.928 76.0513 138.942C76.0408 138.957 76.0352 138.974 76.0352 138.992C76.0352 139.01 76.0408 139.027 76.0513 139.042C76.0617 139.056 76.0765 139.067 76.0935 139.072C77.2256 139.108 78.3588 139.065 79.4851 138.945C80.5645 138.795 81.6325 138.571 82.6816 138.275C84.9201 137.673 87.1246 136.978 89.3631 136.359C93.8569 135.104 98.3592 133.815 102.929 132.925C103.167 132.883 103.099 132.527 102.887 132.552Z" fill="#263238"/>
<path d="M114.265 136.392C110.493 136.073 106.705 135.965 102.92 136.07C101.021 136.129 99.1473 136.299 97.2649 136.519C96.3662 136.63 95.4674 136.748 94.5686 136.884C93.6698 137.02 92.6185 137.308 91.6349 137.435C91.5332 137.435 91.5332 137.613 91.6349 137.596C92.5676 137.503 93.5172 137.596 94.4584 137.52L97.2819 137.393C99.1727 137.308 101.064 137.24 102.946 137.138C106.727 136.935 110.484 136.774 114.265 136.706C114.301 136.698 114.332 136.678 114.355 136.649C114.377 136.621 114.39 136.585 114.39 136.549C114.39 136.513 114.377 136.477 114.355 136.449C114.332 136.42 114.301 136.4 114.265 136.392Z" fill="#263238"/>
<path d="M60.4087 71.757C30.037 95.5829 0.208008 136.765 0.00451286 159.794C-0.21594 182.526 7.70342 180.322 9.95034 180.144C23.6863 179.245 56.0335 115.966 65.9115 90.1733C75.6708 64.6008 67.8702 65.8641 60.4087 71.757Z" fill="#009247"/>
<path d="M28.1719 162.411C29.7659 159.545 31.4024 156.713 32.9455 153.83L37.6768 145.224C40.7971 139.475 43.9682 133.752 47.0037 127.952C50.0391 122.153 53.1679 116.421 56.1525 110.604C57.6617 107.705 59.1314 104.785 60.5615 101.846C62.0453 98.9288 63.3935 95.9527 64.801 92.9766C62.6364 99.1682 60.1284 105.234 57.2886 111.147C54.5075 117.082 51.4806 122.907 48.4451 128.715C45.4096 134.524 42.1283 140.204 38.7791 145.834C35.4299 151.464 31.9535 157.052 28.1719 162.411Z" fill="#263238"/>
<path d="M61.5879 100.598C62.1487 99.5675 62.7746 98.5735 63.4617 97.6222C63.8009 97.1559 64.1231 96.6811 64.4877 96.2317C64.8523 95.7823 65.1915 95.299 65.5984 94.8496C65.3264 96.0169 64.8186 97.1162 64.1061 98.0801C63.4286 99.0671 62.5749 99.9208 61.5879 100.598Z" fill="#263238"/>
<path d="M154.378 117.735C152.784 107.06 149.595 92.1793 145.746 89.1014C141.693 85.8709 127.016 75.0687 122.793 73.6612C118.571 72.2537 99.7476 65.3264 96.3221 67.3529C93.5834 68.9808 96.9326 76.1964 105.895 79.5711C113.763 82.5387 117.833 85.3368 120.089 86.2864C122.344 87.2361 127.966 94.5873 126.499 97.8856C125.651 99.8273 120.046 102.125 116.536 100.607C113.026 99.0897 112.084 92.1284 108.057 88.9403C104.029 85.7522 96.9919 86.2016 96.6019 88.0924C96.2118 89.9832 98.552 90.8566 102.223 97.2836C104.589 101.413 104.852 111.384 110.185 118.481C112.865 122.042 117.579 131.556 117.579 131.556L154.378 117.735Z" fill="#F3A398"/>
<path d="M104.291 86.0326C103.003 85.8546 101.79 85.3201 100.789 84.4894C100.472 84.2023 100.229 83.8424 100.081 83.4407C99.9337 83.039 99.8856 82.6075 99.9414 82.1832C99.9479 81.8703 100.065 81.5699 100.272 81.3353C100.34 81.2844 100.272 81.1996 100.204 81.2674C100.107 81.419 99.9996 81.5635 99.8821 81.6999C99.8036 81.8257 99.7383 81.9592 99.6871 82.0984C99.5909 82.3705 99.5449 82.6577 99.5514 82.9463C99.5785 83.6012 99.83 84.2269 100.264 84.7184C100.78 85.2483 101.413 85.6506 102.112 85.8935C102.811 86.1363 103.557 86.213 104.291 86.1174C104.35 86.1344 104.35 86.0411 104.291 86.0326Z" fill="#263238"/>
<path d="M145.741 89.1063C142.282 83.8069 133.489 74.2851 124.841 71.0715C118.999 68.8924 99.0648 78.8637 99.6922 82.6877C100.32 86.5117 103.737 86.4863 108.799 85.8249C110.639 85.5875 120.364 81.9839 122.051 84.0104C124.476 86.9272 127.622 96.9578 127.622 96.9578L145.741 89.1063Z" fill="#F3A398"/>
<path d="M100.183 81.1704C102.616 77.0412 108.026 74.7943 113.427 73.0137C113.44 73.0185 113.451 73.0272 113.459 73.0385C113.467 73.0499 113.471 73.0634 113.471 73.0773C113.471 73.0911 113.467 73.1046 113.459 73.116C113.451 73.1274 113.44 73.136 113.427 73.1409C112.054 73.5987 103.252 77.7449 100.2 81.2298C100.208 81.2722 100.158 81.2043 100.183 81.1704Z" fill="#263238"/>
<path d="M145.736 89.0938C142.277 83.7945 133.484 74.2726 124.836 71.0591C118.994 68.88 103.274 81.5306 103.901 85.3546C104.529 89.1786 109.446 89.433 114.856 87.4828C116.603 86.8554 122.487 82.6498 124.132 84.6763C126.557 87.593 132.467 94.851 132.467 94.851L145.736 89.0938Z" fill="#F3A398"/>
<path d="M129.088 90.3412C128.528 89.4933 128.342 89.2135 127.774 88.391C127.205 87.5685 126.62 86.7461 126.001 85.9745C125.508 85.2456 124.891 84.6085 124.178 84.0922C123.445 83.6883 122.6 83.5335 121.77 83.6513C119.888 83.8463 118.201 85.0588 116.615 85.9915C114.843 87.0344 111.155 88.7302 108.323 88.4588C107.542 88.4272 106.776 88.2307 106.076 87.8823C105.547 87.6447 105.084 87.2807 104.728 86.8224C103.473 84.7535 104.982 82.354 106.534 80.6497C109.434 77.4786 113.317 75.1638 117.141 73.2476C118.074 72.7812 119.015 72.3318 119.964 71.8909C121.009 71.3135 122.166 70.9666 123.356 70.8735C125.323 70.8311 128.571 72.7982 129.58 73.4171C129.656 73.4595 129.715 73.3324 129.639 73.29C128.418 72.5438 125.399 70.1188 122.22 70.3139C121.061 70.5004 119.944 70.8908 118.922 71.467C117.819 71.9503 116.734 72.476 115.657 73.0271C113.561 74.0877 111.548 75.3065 109.637 76.6731C107.729 77.9425 106.069 79.5486 104.736 81.4128C104.18 82.2438 103.859 83.2102 103.808 84.2092C103.757 85.2081 103.978 86.2021 104.448 87.0852C105.296 88.5182 107.187 88.8489 108.043 88.9421C108.873 89.0523 109.714 89.0523 110.544 88.9421C112.393 88.5038 114.209 87.9371 115.979 87.2464C117.675 86.5426 119.235 85.364 120.999 84.8129C121.832 84.5259 122.745 84.5745 123.543 84.9485C124.27 85.4283 124.922 86.0142 125.476 86.6867C126.677 87.8395 127.767 89.1028 128.732 90.4599C129.028 90.8329 129.291 90.7142 129.088 90.3412Z" fill="#263238"/>
<path d="M148.32 93.7229C147.04 91.1792 144.826 80.7585 142.775 77.5704C140.723 74.3823 131.387 63.3851 127.089 63.9108C121.687 64.5722 127.428 74.2636 130.302 78.2487C133.176 82.2339 132.769 89.0594 132.769 89.0594L148.32 93.7229Z" fill="#F3A398"/>
<path d="M126.286 71.6837C127.303 72.9386 128.21 74.3376 129.101 75.6943C130.014 76.9534 130.836 78.2767 131.56 79.6539C132.166 81.0652 132.538 82.5658 132.662 84.0969C132.738 84.8515 132.772 85.5977 132.789 86.3523C132.806 87.107 132.73 88.0481 132.789 88.8367C132.789 88.9215 132.653 88.9384 132.653 88.8367C132.534 87.3326 132.322 85.8375 132.017 84.3598C131.736 82.8241 131.266 81.329 130.618 79.9083C129.321 77.0848 127.447 74.5835 126.125 71.777C126.048 71.6244 126.209 71.548 126.286 71.6837Z" fill="#263238"/>
<path d="M132.692 90.2012C133.065 92.7957 132.319 95.4242 131.387 97.8322C130.909 99.0483 130.343 100.227 129.691 101.359C129.028 102.478 128.291 103.552 127.486 104.573C125.936 106.519 124.637 108.653 123.62 110.924C122.659 113.258 121.987 115.701 121.619 118.199C121.402 115.605 121.69 112.993 122.467 110.508C123.311 108.023 124.57 105.698 126.189 103.632C127.73 101.665 129.066 99.5457 130.174 97.3065C131.285 95.0427 132.404 92.7533 132.692 90.2012Z" fill="#263238"/>
<path d="M145.838 179.233C135.29 177.809 128.396 160.173 116.356 129.207C114.237 123.764 141.793 90.2973 145.541 95.2914C150.264 101.583 162.982 136.609 164.313 146.165C166.95 164.955 158.149 180.895 145.838 179.233Z" fill="#F3A398"/>
<path d="M122.715 146.453L156.707 113.428C156.707 113.428 166.365 141.849 165.457 153.762C164.55 165.675 160.37 179.25 146.057 179.996C135.323 180.556 122.715 146.453 122.715 146.453Z" fill="#009247"/>
<path d="M133.712 169.314C132.483 167.576 131.389 165.753 130.32 163.922C129.252 162.09 128.269 160.216 127.31 158.326C126.352 156.435 125.471 154.493 124.69 152.518C123.855 150.559 123.194 148.53 122.715 146.455C123.614 148.38 124.563 150.262 125.521 152.144L128.379 157.791C129.303 159.691 130.244 161.582 131.126 163.498C132.008 165.414 132.915 167.339 133.712 169.314Z" fill="#263238"/>
<path d="M130.027 152.228C131.672 150.414 133.486 148.735 135.233 147.03C136.979 145.326 138.76 143.639 140.558 141.943C144.136 138.602 147.745 135.29 151.385 132.006C152.386 131.107 153.389 130.217 154.395 129.335C155.481 128.394 156.685 127.588 157.787 126.639C157.805 126.629 157.826 126.627 157.846 126.631C157.867 126.635 157.885 126.645 157.898 126.661C157.912 126.676 157.92 126.696 157.921 126.716C157.923 126.737 157.917 126.757 157.906 126.774C157.058 127.622 156.286 128.563 155.438 129.42C154.59 130.276 153.658 131.175 152.75 132.04C150.981 133.735 149.2 135.417 147.409 137.085C143.822 140.425 140.227 143.758 136.539 146.988C134.453 148.811 132.409 150.71 130.222 152.406C130.198 152.432 130.165 152.447 130.13 152.449C130.095 152.451 130.061 152.438 130.035 152.415C130.009 152.391 129.994 152.358 129.992 152.323C129.991 152.288 130.003 152.254 130.027 152.228Z" fill="#263238"/>
<path d="M69.3821 69.1362C69.628 70.832 76.7927 82.7873 86.2891 82.2108C91.775 81.8547 88.0443 70.832 88.0443 70.832L92.8179 55.7734L74.6136 41.8594C74.6136 41.8594 69.2888 68.3985 69.3821 69.1362Z" fill="#F3A398"/>
<path d="M72.6631 51.798C73.8828 55.7463 75.9018 59.4014 78.5945 62.5361C81.2872 65.6708 84.5961 68.218 88.3153 70.0193L92.8261 55.8085L74.6133 41.8945C74.6133 41.8945 73.7314 46.3629 72.6631 51.798Z" fill="#263238"/>
<path d="M114.277 34.6626C114.819 60.5234 99.3875 63.7709 93.8084 63.8811C88.721 63.9828 71.4917 63.6776 68.2782 38.0033C65.0647 12.329 76.9268 3.90089 88.4921 3.06148C100.057 2.22206 113.742 8.79326 114.277 34.6626Z" fill="#F3A398"/>
<path d="M108.231 32.586C107.658 32.4511 107.092 32.2869 106.535 32.0943C105.891 32.009 105.294 31.7105 104.839 31.2464C104.727 31.0769 104.675 30.8749 104.69 30.6723C104.705 30.4696 104.788 30.2779 104.924 30.1272C105.238 29.8697 105.614 29.7002 106.015 29.6361C106.416 29.5721 106.827 29.6157 107.205 29.7626C108.02 29.9455 108.738 30.4225 109.223 31.1022C109.321 31.2624 109.37 31.4473 109.367 31.6349C109.363 31.8225 109.305 32.005 109.201 32.161C109.097 32.317 108.95 32.4399 108.778 32.5152C108.606 32.5905 108.416 32.6151 108.231 32.586Z" fill="#263238"/>
<path d="M90.4845 31.8243C91.0794 31.7763 91.6711 31.6942 92.2566 31.5785C92.8934 31.586 93.5143 31.38 94.0202 30.9934C94.1565 30.8427 94.2389 30.6509 94.2542 30.4483C94.2696 30.2457 94.2171 30.0437 94.105 29.8742C93.8339 29.5709 93.4861 29.3463 93.0982 29.224C92.7103 29.1016 92.2965 29.0861 91.9005 29.1789C91.0674 29.2302 90.2851 29.5971 89.7129 30.2049C89.5904 30.3494 89.5122 30.5262 89.4877 30.7141C89.4633 30.902 89.4936 31.093 89.5751 31.2641C89.6566 31.4351 89.7858 31.579 89.9471 31.6784C90.1085 31.7778 90.2951 31.8285 90.4845 31.8243Z" fill="#263238"/>
<path d="M93.7074 38.6134C93.7074 38.5455 93.5717 38.6897 93.5632 38.766C93.5632 40.5211 93.1987 42.5391 91.5792 43.0055C91.5283 43.0055 91.5283 43.1072 91.5792 43.1072C93.5463 42.9461 93.9618 40.3092 93.7074 38.6134Z" fill="#263238"/>
<path d="M92.2263 36.677C89.4113 36.3124 88.8941 41.9848 91.5056 42.3155C94.1171 42.6462 94.592 36.9738 92.2263 36.677Z" fill="#263238"/>
<path d="M91.085 36.9211C90.5593 37.2009 90.0252 37.7182 89.3892 37.769C88.7533 37.8199 88.2192 37.1331 87.8206 36.5226C87.7783 36.4633 87.7274 36.5226 87.7189 36.582C87.6087 37.6673 87.9224 38.812 89.0755 39.0833C90.2287 39.3546 90.9663 38.4304 91.3394 37.3875C91.4412 37.0822 91.297 36.7685 91.085 36.9211Z" fill="#263238"/>
<path d="M104.338 38.7735C104.338 38.7057 104.465 38.8753 104.457 38.9431C104.228 40.6898 104.262 42.7332 105.797 43.4709C105.839 43.4709 105.797 43.5811 105.797 43.5641C103.855 43.1063 103.838 40.393 104.338 38.7735Z" fill="#263238"/>
<path d="M106.072 37.0765C108.913 37.1443 108.616 42.8168 105.945 42.7659C103.274 42.715 103.69 37.0256 106.072 37.0765Z" fill="#263238"/>
<path d="M107.248 37.5448C107.681 37.867 108.096 38.4435 108.622 38.5114C109.148 38.5792 109.741 37.9941 110.174 37.4345C110.216 37.3752 110.258 37.4345 110.258 37.5024C110.258 38.5877 109.792 39.6984 108.741 39.8426C107.689 39.9867 107.13 38.9947 106.935 37.9094C106.901 37.7059 107.045 37.4091 107.248 37.5448Z" fill="#263238"/>
<path d="M93.6706 52.1344C94.0352 52.6008 94.3744 53.2198 95.0018 53.3554C95.6516 53.4321 96.3102 53.3714 96.935 53.1774C96.9944 53.1774 97.0452 53.2282 97.0028 53.2706C96.7064 53.5809 96.3317 53.8053 95.9183 53.9202C95.5049 54.0351 95.0682 54.0363 94.6542 53.9235C94.3072 53.7837 94.0099 53.5436 93.7999 53.2341C93.59 52.9245 93.4771 52.5594 93.4756 52.1853C93.4756 52.0836 93.6197 52.0666 93.6706 52.1344Z" fill="#263238"/>
<path d="M101.523 46.3488C101.523 46.3488 101.684 48.9942 101.583 50.2322C101.583 50.3509 101.269 50.3848 100.854 50.3763H100.803C99.725 50.4832 98.6386 50.2932 97.6611 49.8269C96.6837 49.3606 95.8524 48.6357 95.2574 47.7308C95.1811 47.6037 95.3507 47.485 95.4525 47.5698C96.9479 48.7721 98.7918 49.4591 100.709 49.5284C100.82 49.1977 100.285 45.0006 100.489 45.0006C101.442 45.157 102.369 45.4423 103.245 45.8485C103.084 40.3117 102.024 34.8259 101.947 29.34C101.939 29.2973 101.949 29.2531 101.974 29.2174C101.998 29.1816 102.036 29.1571 102.079 29.1492C102.121 29.1413 102.166 29.1507 102.201 29.1754C102.237 29.2 102.262 29.2379 102.27 29.2806C103.779 34.9276 104.109 41.2953 104.432 47.0017C104.508 47.7224 102.007 46.5947 101.523 46.3488Z" fill="#263238"/>
<path d="M68.8888 37.4264C75.2565 38.2743 80.3863 19.1288 80.9883 16.7717C80.6915 18.2809 79.1144 26.2512 79.6656 26.6751C80.3446 26.791 81.0384 26.791 81.7175 26.6751C81.8838 25.7174 82.1219 24.7736 82.4297 23.8516C82.5569 23.4192 82.4297 24.8436 82.4297 26.6157C82.8028 26.6157 83.2098 26.5225 83.6507 26.4886C83.9287 24.4295 84.479 22.4165 85.2871 20.5024C85.6009 19.7817 85.2278 23.2157 85.4482 26.3105C90.0099 25.8696 96.5811 25.3948 102.508 26.1918C104.102 26.4038 105.459 26.6497 106.654 26.9125C107.061 24.5554 107.214 21.9862 107.299 22.5628C107.529 24.0689 107.611 25.5939 107.544 27.116C108.189 27.2686 108.782 27.4128 109.317 27.5569C110.046 24.2501 109.359 18.6455 109.757 19.5528C110.918 22.3357 111.539 25.3137 111.589 28.3285C113.793 29.1764 114.345 29.7021 114.514 29.1255C114.802 28.0741 115.082 18.5099 108.96 10.4209C102.313 1.63672 86.8473 -2.908 76.0111 7.02935C76.0111 7.02935 67.8713 10.5736 65.4124 18.052C62.9535 25.5304 65.2005 36.9262 68.8888 37.4264Z" fill="#263238"/>
<path d="M72.6784 38.145C72.6784 38.145 67.591 29.7169 63.7839 31.489C59.9769 33.2611 63.4617 45.2164 67.6503 47.0988C68.1711 47.3765 68.7426 47.546 69.3306 47.597C69.9185 47.6481 70.5107 47.5797 71.0716 47.3959C71.6324 47.2122 72.1503 46.9168 72.594 46.5277C73.0377 46.1386 73.3981 45.6637 73.6535 45.1316L72.6784 38.145Z" fill="#F3A398"/>
<path d="M64.8528 34.8887C64.8417 34.8931 64.8323 34.9007 64.8256 34.9105C64.819 34.9203 64.8154 34.9319 64.8154 34.9438C64.8154 34.9557 64.819 34.9672 64.8256 34.9771C64.8323 34.9869 64.8417 34.9945 64.8528 34.9989C67.7865 36.4234 69.1855 39.3147 70.1097 42.2823C69.2618 41.1122 68.1087 40.417 66.5485 41.3836C66.4638 41.4344 66.5486 41.5616 66.6164 41.5531C67.1558 41.4191 67.7234 41.4556 68.2412 41.6575C68.759 41.8595 69.2015 42.217 69.5077 42.6808C70.0139 43.4629 70.4373 44.2955 70.7711 45.1652C70.8898 45.445 71.39 45.3348 71.3052 45.021C71.3013 44.9958 71.3013 44.97 71.3052 44.9447C71.5766 41.1546 68.9481 35.55 64.8528 34.8887Z" fill="#263238"/>
<path d="M95.095 81.2931L80.7486 125.655C80.1805 126.944 80.7486 128.063 82.0798 128.148L105.355 129.674C106.069 129.667 106.766 129.458 107.367 129.071C107.967 128.683 108.445 128.134 108.746 127.487L123.067 83.1246C123.635 81.8273 123.067 80.7081 121.744 80.5809L98.4696 79.0547C97.7525 79.0685 97.0542 79.2864 96.4565 79.6828C95.8589 80.0793 95.3865 80.6379 95.095 81.2931Z" fill="#37474F"/>
<path d="M97.8625 81.4395L83.5415 125.801C82.9734 127.099 83.5415 128.218 84.8727 128.303L108.147 129.829C108.862 129.822 109.559 129.613 110.16 129.225C110.76 128.838 111.238 128.289 111.539 127.641L125.86 83.271C126.428 81.9822 125.86 80.863 124.537 80.7782L101.263 79.252C100.546 79.2554 99.8462 79.4631 99.244 79.8506C98.6417 80.2381 98.1625 80.7893 97.8625 81.4395Z" fill="#455A64"/>
<path d="M104.117 83.9182C104.084 84.3093 103.935 84.6817 103.69 84.9883C103.445 85.295 103.115 85.522 102.741 85.6408C102.367 85.7596 101.966 85.7647 101.589 85.6555C101.212 85.5464 100.875 85.3278 100.623 85.0275C100.37 84.7273 100.212 84.3588 100.168 83.9686C100.125 83.5785 100.198 83.1843 100.379 82.8359C100.56 82.4875 100.84 82.2005 101.184 82.0113C101.528 81.8221 101.92 81.7392 102.311 81.773C102.835 81.8183 103.319 82.0697 103.658 82.4719C103.997 82.8741 104.162 83.3943 104.117 83.9182Z" fill="#263238"/>
<path d="M6.79662 180.132C16.9714 181.531 29.6305 173.638 62.4865 149.651C67.0312 146.335 52.2354 107.951 47.2243 111.241C40.8821 115.395 17.1579 132.871 15.5893 134.371C2.29429 146.997 -0.0967786 179.183 6.79662 180.132Z" fill="#F3A398"/>
<path d="M35.4688 122.842C35.4688 122.842 44.7956 109.717 51.8755 104.341C61.3211 97.1424 72.437 94.8107 77.1513 94.1154C86.9954 92.6655 111.805 95.9723 112.102 103.281C112.373 109.903 87.182 105.248 87.182 105.248C87.182 105.248 113.645 105.757 112.509 113.787C111.372 121.816 82.4592 114.745 82.4592 114.745C82.4592 114.745 109.643 115.872 107.158 123.97C105.276 130.083 78.7115 125.157 78.7115 125.157C78.7115 125.157 102.063 126.293 100.401 132.669C98.5607 139.707 73.7598 136.697 73.7598 136.697C66.807 152.188 56.8018 156.546 49.5862 158.954C47.7972 159.539 35.4688 122.842 35.4688 122.842Z" fill="#F3A398"/>
<path d="M78.0301 104.49C81.1419 104.431 84.2876 104.363 87.357 104.583C90.4264 104.804 93.5636 105.143 96.633 105.652C100.659 106.244 104.605 107.294 108.393 108.781C101.474 106.635 90.3755 105.66 87.2722 105.431C84.1689 105.202 81.0826 104.829 77.9453 104.583C77.9369 104.6 77.9538 104.49 78.0301 104.49Z" fill="#263238"/>
<path d="M77.0129 115.688C80.9896 115.798 84.9408 115.755 88.8835 116.035C92.8262 116.315 96.557 116.925 100.483 117.477C100.779 117.519 100.661 117.663 100.356 117.629C96.4128 117.239 92.7245 117.18 88.7902 116.832C84.856 116.485 80.9133 115.984 76.9706 115.781C76.9451 115.781 76.9536 115.688 77.0129 115.688Z" fill="#263238"/>
<path d="M74.4329 125.088C80.5208 124.935 86.6172 125.936 92.5864 127.004C92.8832 127.063 92.7051 127.233 92.3999 127.199C86.3713 126.444 81.657 125.817 74.4414 125.3C74.3227 125.325 74.3058 125.088 74.4329 125.088Z" fill="#263238"/>
<path d="M35.4519 117.623L48.3993 164.8C48.3993 164.8 13.6355 185.243 6.00445 179.842C-1.62662 174.441 3.34205 147.189 12.0669 136.802C15.645 132.47 35.4519 117.623 35.4519 117.623Z" fill="#009247"/>
<path d="M35.8943 119.176L35.3855 117.625L35.5127 117.675C32.2314 120.355 28.9415 123.009 25.6941 125.713C22.4466 128.418 19.1907 131.115 16.1044 133.972C14.5404 135.356 13.0676 136.84 11.6953 138.415C10.3822 140.036 9.21066 141.766 8.19349 143.587C6.17644 147.297 4.76256 151.304 4.00488 155.458C4.33947 151.191 5.49088 147.029 7.39647 143.197C8.3539 141.271 9.51356 139.452 10.8559 137.771C12.2366 136.129 13.7236 134.58 15.3073 133.133C18.453 130.275 21.7514 127.596 25.0921 124.993C28.4328 122.39 31.8752 119.905 35.4195 117.574L35.5212 117.506V117.616L35.8943 119.176Z" fill="#263238"/>
<path d="M27.8581 129.354C28.6467 131.668 29.2487 134.059 29.9015 136.417C30.5544 138.774 31.1903 141.148 31.7924 143.53C32.9964 148.279 34.1749 153.035 35.2857 157.809C35.5909 159.115 35.8962 160.421 36.1336 161.735C36.371 163.049 36.566 164.575 36.8797 165.974C36.8825 165.985 36.8831 165.997 36.8814 166.008C36.8797 166.02 36.8758 166.031 36.8699 166.04C36.858 166.06 36.8386 166.075 36.8161 166.08C36.7937 166.086 36.7699 166.082 36.75 166.07C36.7301 166.058 36.7158 166.039 36.7102 166.017C36.3964 164.855 35.9131 163.736 35.574 162.574C35.2348 161.413 34.8872 160.175 34.5735 158.962C33.946 156.594 33.3299 154.222 32.725 151.848C31.5125 147.1 30.3255 142.343 29.2741 137.553C28.6806 134.856 28.0023 132.143 27.5783 129.413C27.5744 129.395 27.5742 129.376 27.5776 129.357C27.581 129.339 27.5881 129.321 27.5983 129.305C27.6085 129.29 27.6218 129.276 27.6373 129.265C27.6527 129.255 27.6702 129.247 27.6885 129.243C27.7069 129.239 27.7259 129.239 27.7443 129.243C27.7628 129.246 27.7804 129.253 27.7962 129.263C27.8119 129.274 27.8255 129.287 27.8361 129.302C27.8467 129.318 27.8542 129.335 27.8581 129.354Z" fill="#263238"/>
<path d="M48.4151 164.804C48.644 165.244 48.6271 164.871 48.5762 164.6C48.5253 164.329 47.9912 162.056 47.4909 160.615C47.44 160.471 47.2196 160.216 47.3044 160.734C47.6021 162.109 47.9729 163.468 48.4151 164.804Z" fill="#263238"/>
</svg>
